<svg xmlns="http://www.w3.org/2000/svg" version="1.1" xmlns:xlink="http://www.w3.org/1999/xlink" xmlns:svgjs="http://svgjs.dev/svgjs" viewBox="0 0 800 800" opacity="0.58"><defs><filter id="bbburst-blur-1" x="-100%" y="-100%" width="400%" height="400%"><feGaussianBlur in="SourceGraphic" stdDeviation="1"></feGaussianBlur></filter><filter id="bbburst-blur-2" x="-100%" y="-100%" width="400%" height="400%"><feGaussianBlur in="SourceGraphic" stdDeviation="2"></feGaussianBlur></filter><filter id="bbburst-blur-3" x="-100%" y="-100%" width="400%" height="400%"><feGaussianBlur in="SourceGraphic" stdDeviation="4"></feGaussianBlur></filter><filter id="bbburst-blur-4" x="-100%" y="-100%" width="400%" height="400%"><feGaussianBlur in="SourceGraphic" stdDeviation="12"></feGaussianBlur></filter><symbol id="bbburst-shape-1" viewBox="0 0 194 167"><path d="m97 0 96.129 166.5H.871L97 0Z"></path></symbol><symbol id="bbburst-shape-3" viewBox="0 0 131 127"><path d="m66 0 66 63.5L66 127 0 63.5 66 0Z"></path></symbol><symbol id="bbburst-shape-4" viewBox="0 0 149 143"><path d="M71.647 2.781c.898-2.764 4.808-2.764 5.706 0l15.445 47.534a3 3 0 0 0 2.853 2.073h49.98c2.906 0 4.115 3.719 1.764 5.427L106.96 87.193a2.999 2.999 0 0 0-1.09 3.354l15.445 47.534c.898 2.764-2.266 5.062-4.617 3.354l-40.435-29.378a3 3 0 0 0-3.526 0l-40.435 29.378c-2.351 1.708-5.515-.59-4.617-3.354L43.13 90.547a3 3 0 0 0-1.09-3.354L1.605 57.815c-2.35-1.708-1.142-5.427 1.764-5.427h49.98a3 3 0 0 0 2.853-2.073L71.647 2.781Z"></path></symbol><symbol id="bbburst-shape-6" viewBox="0 0 133 116"><path d="M59.7487 10.2513c-13.6683-13.66839-35.8291-13.66839-49.4974 0-13.66839 13.6683-13.66839 35.8291 0 49.4974l49.4974-49.4974ZM66.5 66.5 41.7513 91.2487 66.5 115.997l24.7487-24.7483L66.5 66.5Zm56.249-6.7513c13.668-13.6683 13.668-35.8291 0-49.4974-13.669-13.66839-35.8294-13.66839-49.4977 0l49.4977 49.4974Zm-112.4977 0 31.5 31.5 49.4974-49.4974-31.5-31.5-49.4974 49.4974Zm80.9974 31.5 31.5003-31.5-49.4977-49.4974-31.5 31.5 49.4974 49.4974Z"></path></symbol><symbol id="bbburst-shape-8" viewBox="0 0 87 168"><path d="m12 12 31.2546 18.0749c16.4102 9.4902 20.014 31.6325 7.4603 45.8369L36.3296 92.1884c-12.5684 14.2206-8.9394 36.3916 7.5068 45.8636L75 156" stroke-width="14" stroke-linecap="round" stroke-linejoin="round"></path></symbol><symbol id="bbburst-shape-9" viewBox="0 0 182 172"><path d="M13.5809 69.845 91 13.5967l77.419 56.2483-29.571 91.012H43.1524L13.5809 69.845Z" stroke-width="22"></path></symbol><symbol id="bbburst-shape-10" viewBox="0 0 145 145"><circle cx="72.5" cy="72.5" r="61.5" fill="none" stroke-width="22"></circle></symbol></defs><use xlink:href="#bbburst-shape-1" width="18.523133189154628" opacity="0.6234964695437957" transform="matrix(0.9974619816337995,-0.0712010898454078,0.0712010898454078,0.9974619816337995,531.3965106829152,11.997152994474959)" fill="#00a19d" filter="url(#bbburst-blur-1)"></use><use xlink:href="#bbburst-shape-9" width="20.718004297194927" opacity="0.4988292641838793" transform="matrix(0.9645729688540795,-0.26381620070804396,0.26381620070804396,0.9645729688540795,281.89272439691024,-208.74342504365308)" fill="none" stroke="#ffa6d5" filter="url(#bbburst-blur-2)"></use><use xlink:href="#bbburst-shape-10" width="13.533931180010079" opacity="0.7681695493109605" transform="matrix(0.9785129697361427,0.20618527604597478,-0.20618527604597478,0.9785129697361427,439.90840600661153,105.13552848304596)" fill="none" stroke="#00a19d" filter="url(#bbburst-blur-1)"></use><use xlink:href="#bbburst-shape-9" width="9.12572213138563" opacity="0.7871059940236518" transform="matrix(0.9989352733114661,-0.04613371580684288,0.04613371580684288,0.9989352733114661,432.624929979998,78.564402142848)" fill="none" stroke="#ff5c58"></use><use xlink:href="#bbburst-shape-4" width="12.825977585391104" opacity="0.8185304706385654" transform="matrix(0.8598005240241715,-0.5106300606973311,0.5106300606973311,0.8598005240241715,124.462587358984,107.75763740959451)" fill="#ffbd9b"></use><use xlink:href="#bbburst-shape-9" width="9.785974356159244" opacity="0.7787579449880144" transform="matrix(0.8501569055692797,0.5265294254957332,-0.5265294254957332,0.8501569055692797,624.4523207956015,155.22940101082736)" fill="none" stroke="#ff5c58"></use><use xlink:href="#bbburst-shape-4" width="38.14657840040398" opacity="0.2364905552028812" transform="matrix(1.24903026358065,0.04922804748973901,-0.04922804748973901,1.24903026358065,674.5088175423984,-301.51787373182566)" fill="#2c2891" filter="url(#bbburst-blur-3)"></use><use xlink:href="#bbburst-shape-3" width="35.98578818954977" opacity="0.2036655541018857" transform="matrix(1.2471736986358488,-0.08401050786048575,0.08401050786048575,1.2471736986358488,136.96198139448347,195.2961660899)" fill="#ff5c58" filter="url(#bbburst-blur-3)"></use><use xlink:href="#bbburst-shape-8" width="20.825996482474967" opacity="0.5945973732470154" transform="matrix(0.9575134355250235,0.28838866272630526,-0.28838866272630526,0.9575134355250235,635.4561269301936,141.90803777137694)" fill="none" stroke="#2c2891" filter="url(#bbburst-blur-1)"></use><use xlink:href="#bbburst-shape-9" width="21.258057214592718" opacity="0.4696462537952317" transform="matrix(0.9914955533306598,0.13014056909945013,-0.13014056909945013,0.9914955533306598,366.25618604806624,-224.59900270666216)" fill="none" stroke="#ffa6d5" filter="url(#bbburst-blur-2)"></use><use xlink:href="#bbburst-shape-4" width="44.132770305983136" opacity="0.1690770865071879" transform="matrix(1.0672499153713848,-0.6507515794370166,0.6507515794370166,1.0672499153713848,-141.39090727738176,-283.55547571835154)" fill="#2c2891" filter="url(#bbburst-blur-3)"></use><use xlink:href="#bbburst-shape-4" width="17.886733317969984" opacity="0.6463648041218406" transform="matrix(0.9452878480480448,-0.32623746616950144,0.32623746616950144,0.9452878480480448,312.8318816773756,-125.6596949901359)" fill="#00a19d" filter="url(#bbburst-blur-1)"></use><use xlink:href="#bbburst-shape-10" width="14.227570600156449" opacity="0.67545725578975" transform="matrix(0.9810143057935643,0.19393538054818976,-0.19393538054818976,0.9810143057935643,339.76644921411486,71.11998263030154)" fill="none" stroke="#00a19d" filter="url(#bbburst-blur-1)"></use><use xlink:href="#bbburst-shape-4" width="29.277498807541868" opacity="0.031731472218914925" transform="matrix(1.6978718201100702,0.42394726379128445,-0.42394726379128445,1.6978718201100702,786.39899402995,77.23749865381797)" fill="#2c2891" filter="url(#bbburst-blur-4)"></use><use xlink:href="#bbburst-shape-6" width="25.243201002615653" opacity="0.5618558152514239" transform="matrix(0.9980663931063707,0.06215685763968028,-0.06215685763968028,0.9980663931063707,224.30322648927046,59.52207442755412)" fill="#ff5c58" filter="url(#bbburst-blur-1)"></use><use xlink:href="#bbburst-shape-1" width="8.117080729003128" opacity="0.9028469013273678" transform="matrix(0.9335048380513068,-0.35856480214154257,0.35856480214154257,0.9335048380513068,239.39892062476645,-13.554751631409601)" fill="#ffbd9b"></use><use xlink:href="#bbburst-shape-9" width="36.936806299711705" opacity="0.31063197413250454" transform="matrix(1.1755694687384775,-0.42489578036258974,0.42489578036258974,1.1755694687384775,-32.58961622536984,132.88235923522427)" fill="none" stroke="#00a19d" filter="url(#bbburst-blur-3)"></use><use xlink:href="#bbburst-shape-6" width="8.649937614361873" opacity="0.8409778118949345" transform="matrix(0.9762192743352833,-0.21678544327581775,0.21678544327581775,0.9762192743352833,241.19959940159822,33.15001507058025)" fill="#ff5c58"></use><use xlink:href="#bbburst-shape-4" width="12.496817686975213" opacity="0.8919431244325511" transform="matrix(0.9482909132441758,-0.31740249504143314,0.31740249504143314,0.9482909132441758,280.3589137937217,-24.11023718818751)" fill="#00a19d"></use><use xlink:href="#bbburst-shape-6" width="24.28724613115598" opacity="0.3626466765577072" transform="matrix(0.7364866228300354,-0.6764521079813479,0.6764521079813479,0.7364866228300354,-45.5318069305105,347.5023385794911)" fill="#2c2891" filter="url(#bbburst-blur-2)"></use><use xlink:href="#bbburst-shape-9" width="10.388741097208598" opacity="0.8130963058572468" transform="matrix(0.7086101079666408,-0.7056002514791967,0.7056002514791967,0.7086101079666408,107.69937536712285,204.0395655543207)" fill="none" stroke="#ffa6d5"></use><use xlink:href="#bbburst-shape-9" width="10.557074270009783" opacity="0.8734225339488374" transform="matrix(0.8749333977087072,-0.48424327519739213,0.48424327519739213,0.8749333977087072,258.3971685163815,57.436519886225085)" fill="none" stroke="#2c2891"></use><use xlink:href="#bbburst-shape-9" width="7.223872153670293" opacity="0.9115486358591595" transform="matrix(0.944041236681857,0.3298274449529482,-0.3298274449529482,0.944041236681857,568.0325424604367,16.205811940081446)" fill="none" stroke="#2c2891"></use><use xlink:href="#bbburst-shape-10" width="12.665749272812544" opacity="0.7995952147478811" transform="matrix(0.7168957835152948,0.697180346523044,-0.697180346523044,0.7168957835152948,745.4410622829241,53.36176025528761)" fill="none" stroke="#2c2891"></use><use xlink:href="#bbburst-shape-4" width="20.21570049863284" opacity="0.6019833497963984" transform="matrix(0.9989235766234685,0.04638629178731004,-0.04638629178731004,0.9989235766234685,582.1066827688715,-43.89666567222781)" fill="#ffa6d5" filter="url(#bbburst-blur-1)"></use><use xlink:href="#bbburst-shape-1" width="29.405202146333" opacity="0.037311429028681675" transform="matrix(1.5080727337545472,0.8878156507440531,-0.8878156507440531,1.5080727337545472,490.6526859768913,-575.3592538190366)" fill="#ff5c58" filter="url(#bbburst-blur-4)"></use><use xlink:href="#bbburst-shape-10" width="31.91982185569395" opacity="0.1439344667919018" transform="matrix(0.9935011043415133,0.758587869447036,-0.758587869447036,0.9935011043415133,1051.1302374146167,117.89835942292763)" fill="none" stroke="#ffa6d5" filter="url(#bbburst-blur-3)"></use><use xlink:href="#bbburst-shape-6" width="16.720326574490787" opacity="0.654840110697323" transform="matrix(0.9983861668326794,0.056789628253309736,-0.056789628253309736,0.9983861668326794,495.9818836135199,132.32343053348882)" fill="#ffbd9b" filter="url(#bbburst-blur-1)"></use><use xlink:href="#bbburst-shape-6" width="14.681260851128165" opacity="0.6897394819090719" transform="matrix(0.7344152168061714,0.6787004415230216,-0.6787004415230216,0.7344152168061714,778.097899789511,184.60043757186298)" fill="#ffa6d5" filter="url(#bbburst-blur-1)"></use><use xlink:href="#bbburst-shape-6" width="8.84479010372759" opacity="0.8661269572097179" transform="matrix(0.9890267353711828,0.1477366465066141,-0.1477366465066141,0.9890267353711828,415.6179868104393,49.563713119126135)" fill="#00a19d"></use><use xlink:href="#bbburst-shape-3" width="10.98529993385538" opacity="0.8498096828917195" transform="matrix(0.8469270705743966,0.5317090718882563,-0.5317090718882563,0.8469270705743966,670.5982120988435,32.814583812837725)" fill="#ffa6d5"></use><use xlink:href="#bbburst-shape-8" width="24.73608949541941" opacity="0.5636531644526708" transform="matrix(0.7129773407859165,-0.7011870731308751,0.7011870731308751,0.7129773407859165,282.99161919841293,217.68185562954523)" fill="none" stroke="#ffbd9b" filter="url(#bbburst-blur-1)"></use><use xlink:href="#bbburst-shape-10" width="28.01390460653682" opacity="0.3007943105816743" transform="matrix(1.2498064043273414,-0.021998902299019067,0.021998902299019067,1.2498064043273414,371.98874613749126,215.02351254774686)" fill="none" stroke="#2c2891" filter="url(#bbburst-blur-3)"></use><use xlink:href="#bbburst-shape-10" width="19.043204022331615" opacity="0.6637202532379789" transform="matrix(0.9755202872004672,0.2199094569597175,-0.2199094569597175,0.9755202872004672,328.9325542565821,-14.13416428107962)" fill="none" stroke="#2c2891" filter="url(#bbburst-blur-1)"></use><use xlink:href="#bbburst-shape-10" width="32.62983662345765" opacity="0.03925253903400405" transform="matrix(1.7489666610972372,0.06013001222669045,-0.06013001222669045,1.7489666610972372,755.8193629443715,-61.61684111020179)" fill="none" stroke="#ff5c58" filter="url(#bbburst-blur-4)"></use><use xlink:href="#bbburst-shape-6" width="9.928410188519992" opacity="0.8560413939294871" transform="matrix(0.8899113478245323,0.4561335254211472,-0.4561335254211472,0.8899113478245323,567.5857733137224,-22.161765964958192)" fill="#ffa6d5"></use><use xlink:href="#bbburst-shape-6" width="34.84009704226054" opacity="0.10561122755866015" transform="matrix(1.6057845637392625,0.6956694149211292,-0.6956694149211292,1.6057845637392625,829.0328309156966,-615.040635531101)" fill="#ffa6d5" filter="url(#bbburst-blur-4)"></use><use xlink:href="#bbburst-shape-4" width="16.587426293074117" opacity="0.7343708841829321" transform="matrix(0.9540451471772727,0.29966290585839267,-0.29966290585839267,0.9540451471772727,566.2844206316205,-90.55836246426003)" fill="#ffa6d5" filter="url(#bbburst-blur-1)"></use><use xlink:href="#bbburst-shape-8" width="28.208280864692185" opacity="0.3312733536431398" transform="matrix(1.2106398001982186,0.31120937353495254,-0.31120937353495254,1.2106398001982186,440.0779980635342,-381.94311515288615)" fill="none" stroke="#2c2891" filter="url(#bbburst-blur-3)"></use><use xlink:href="#bbburst-shape-8" width="22.6582406539372" opacity="0.5703745473060344" transform="matrix(0.9971334605629641,0.07566281666530568,-0.07566281666530568,0.9971334605629641,225.6952831555256,5.034289574145191)" fill="none" stroke="#ff5c58" filter="url(#bbburst-blur-1)"></use><use xlink:href="#bbburst-shape-4" width="31.687895458966313" opacity="0.42173417004343805" transform="matrix(0.8133522876388485,-0.5817714810753892,0.5817714810753892,0.8133522876388485,-24.261010903900655,-105.27406709525866)" fill="#2c2891" filter="url(#bbburst-blur-2)"></use><use xlink:href="#bbburst-shape-3" width="34.06803118134233" opacity="0.4115903427939904" transform="matrix(0.9619585768971185,-0.2731953446420174,0.2731953446420174,0.9619585768971185,14.906798686358968,73.49858431362134)" fill="#00a19d" filter="url(#bbburst-blur-2)"></use><use xlink:href="#bbburst-shape-8" width="12.911052872285506" opacity="0.7086963603487844" transform="matrix(0.9019017220351867,0.43194129669431325,-0.43194129669431325,0.9019017220351867,496.68827655231814,147.11434636493806)" fill="none" stroke="#2c2891" filter="url(#bbburst-blur-1)"></use><use xlink:href="#bbburst-shape-10" width="19.18462830360619" opacity="0.6454368618149757" transform="matrix(0.9999964459628943,-0.0026660948183277636,0.0026660948183277636,0.9999964459628943,526.5561299569241,-81.39401242330263)" fill="none" stroke="#00a19d" filter="url(#bbburst-blur-1)"></use><use xlink:href="#bbburst-shape-4" width="13.155886318699245" opacity="0.8242706407670113" transform="matrix(0.8959266996676547,0.4442019234792033,-0.4442019234792033,0.8959266996676547,592.3425185662543,-37.64049804534517)" fill="#ffbd9b"></use><use xlink:href="#bbburst-shape-8" width="8.837027984738395" opacity="0.9217132666858179" transform="matrix(0.7092028050418266,0.7050045257449096,-0.7050045257449096,0.7092028050418266,650.6898040596333,134.3476760937719)" fill="none" stroke="#ffa6d5"></use><use xlink:href="#bbburst-shape-1" width="49.3080347127676" opacity="0.05928009179939031" transform="matrix(1.7376542038185652,0.2075038986420927,-0.2075038986420927,1.7376542038185652,86.06040537971731,-532.0691703004288)" fill="#ffbd9b" filter="url(#bbburst-blur-4)"></use><use xlink:href="#bbburst-shape-3" width="29.83345828215383" opacity="0.3152805224250572" transform="matrix(1.2334628895442994,0.20265561950517758,-0.20265561950517758,1.2334628895442994,760.9320728630356,-19.67180688747385)" fill="#ffbd9b" filter="url(#bbburst-blur-3)"></use><use xlink:href="#bbburst-shape-4" width="22.17067200997413" opacity="0.2691924207169576" transform="matrix(1.1573464298735583,0.4722808923288434,-0.4722808923288434,1.1573464298735583,885.3059832105796,-180.07139430050762)" fill="#00a19d" filter="url(#bbburst-blur-3)"></use><use xlink:href="#bbburst-shape-10" width="21.72983409854049" opacity="0.5252122445781935" transform="matrix(0.8922619418143943,0.4515181360583498,-0.4515181360583498,0.8922619418143943,761.864901288532,-57.65191408373869)" fill="none" stroke="#ffbd9b" filter="url(#bbburst-blur-2)"></use><use xlink:href="#bbburst-shape-4" width="11.359540633502382" opacity="0.7471728220230839" transform="matrix(0.9347887035931955,-0.3552042787390839,0.3552042787390839,0.9347887035931955,138.90210453241804,31.86000237048472)" fill="#ffa6d5" filter="url(#bbburst-blur-1)"></use><use xlink:href="#bbburst-shape-6" width="13.146934048293918" opacity="0.7368607998364225" transform="matrix(0.940045562963617,0.3410488814707012,-0.3410488814707012,0.940045562963617,632.70329171271,-37.61363105297778)" fill="#2c2891" filter="url(#bbburst-blur-1)"></use><use xlink:href="#bbburst-shape-10" width="35.15526881443099" opacity="0.1814339660297718" transform="matrix(0.886963229261592,0.8807929552044842,-0.8807929552044842,0.886963229261592,794.8144217049439,-334.01333043728107)" fill="none" stroke="#ff5c58" filter="url(#bbburst-blur-3)"></use><use xlink:href="#bbburst-shape-9" width="11.689715923131612" opacity="0.7964099428790062" transform="matrix(0.7431592484098607,-0.6691145877223803,0.6691145877223803,0.7431592484098607,122.36978640034692,15.143653268135552)" fill="none" stroke="#ffa6d5"></use><use xlink:href="#bbburst-shape-4" width="14.005876296710213" opacity="0.8232875397983709" transform="matrix(0.8110225322369374,0.5850149162234974,-0.5850149162234974,0.8110225322369374,550.585635893409,54.73970303440916)" fill="#2c2891"></use><use xlink:href="#bbburst-shape-10" width="31.984792493126978" opacity="0.1617379808977818" transform="matrix(0.9438792663531921,0.8195071266002265,-0.8195071266002265,0.9438792663531921,561.4713721387238,-336.2308060426986)" fill="none" stroke="#ffbd9b" filter="url(#bbburst-blur-3)"></use><use xlink:href="#bbburst-shape-10" width="28.033606499627865" opacity="0.5596115767274692" transform="matrix(0.9316545089858863,-0.3633453947503216,0.3633453947503216,0.9316545089858863,386.23204621971274,-103.05205172915146)" fill="none" stroke="#ffa6d5" filter="url(#bbburst-blur-1)"></use><use xlink:href="#bbburst-shape-3" width="23.184145558576994" opacity="0.17566106052344832" transform="matrix(1.1992213449513247,0.3526587101053024,-0.3526587101053024,1.1992213449513247,560.4864330151124,285.63528019036886)" fill="#00a19d" filter="url(#bbburst-blur-3)"></use><use xlink:href="#bbburst-shape-6" width="34.64729355236639" opacity="-0.09934436607476105" transform="matrix(1.3316021138724345,-1.1354892383155657,1.1354892383155657,1.3316021138724345,272.75166004018706,236.63369854054656)" fill="#ffa6d5" filter="url(#bbburst-blur-4)"></use><use xlink:href="#bbburst-shape-8" width="29.220029343216833" opacity="0.31043017215368973" transform="matrix(1.2287656358727725,0.2294232161272716,-0.2294232161272716,1.2287656358727725,163.51067317142676,-95.07354093467302)" fill="none" stroke="#2c2891" filter="url(#bbburst-blur-3)"></use><use xlink:href="#bbburst-shape-6" width="12.763105410104336" opacity="0.754478272251429" transform="matrix(0.7171179872145235,-0.6969517862904081,0.6969517862904081,0.7171179872145235,10.104435309611404,88.33608385192002)" fill="#2c2891" filter="url(#bbburst-blur-1)"></use><use xlink:href="#bbburst-shape-10" width="32.49282341371054" opacity="0.34803683072658853" transform="matrix(0.9989231716249543,-0.04639501256322846,0.04639501256322846,0.9989231716249543,384.43522132116,-291.5685600499537)" fill="none" stroke="#ff5c58" filter="url(#bbburst-blur-2)"></use><use xlink:href="#bbburst-shape-9" width="7.710137010712717" opacity="0.937824525242357" transform="matrix(0.9547458096341691,0.2974229967335998,-0.2974229967335998,0.9547458096341691,531.8140049990247,-5.683102999922937)" fill="none" stroke="#ffa6d5"></use><use xlink:href="#bbburst-shape-10" width="23.277927657347387" opacity="0.4606385575453755" transform="matrix(0.9968256271503042,0.07961575884460693,-0.07961575884460693,0.9968256271503042,178.8104369974316,-24.53902236418952)" fill="none" stroke="#ffbd9b" filter="url(#bbburst-blur-2)"></use><use xlink:href="#bbburst-shape-8" width="34.67357166977736" opacity="0.12286408472747734" transform="matrix(1.2054521560818867,-0.3307341823844805,0.3307341823844805,1.2054521560818867,525.3261936712573,203.23911841084083)" fill="none" stroke="#2c2891" filter="url(#bbburst-blur-3)"></use><use xlink:href="#bbburst-shape-3" width="28.510004450432753" opacity="0.3668141328285901" transform="matrix(0.9811249320844622,-0.1933749405746763,0.1933749405746763,0.9811249320844622,38.71586951669353,-81.17520361560844)" fill="#2c2891" filter="url(#bbburst-blur-2)"></use><use xlink:href="#bbburst-shape-9" width="6.9093284679121" opacity="0.8830224889555329" transform="matrix(0.9987266740436771,-0.05044829584490205,0.05044829584490205,0.9987266740436771,329.5272831900481,24.65578564381974)" fill="none" stroke="#ffa6d5"></use><use xlink:href="#bbburst-shape-6" width="22.946205655048804" opacity="0.5967975790004686" transform="matrix(0.9584310062220203,0.28532438786799447,-0.28532438786799447,0.9584310062220203,397.7533693076098,161.05634119923718)" fill="#ffbd9b" filter="url(#bbburst-blur-1)"></use><use xlink:href="#bbburst-shape-10" width="9.013038419735793" opacity="0.8768417171796725" transform="matrix(0.9952646108872253,0.09720264561986021,-0.09720264561986021,0.9952646108872253,482.1975488524347,29.500944977666336)" fill="none" stroke="#ffbd9b"></use><use xlink:href="#bbburst-shape-9" width="24.236107656295875" opacity="0.17785323537184683" transform="matrix(1.0350982633793293,-0.7007649999458425,0.7007649999458425,1.0350982633793293,52.93013575867167,-371.7047840757325)" fill="none" stroke="#2c2891" filter="url(#bbburst-blur-3)"></use><use xlink:href="#bbburst-shape-6" width="6.671844673465252" opacity="0.9550822912735611" transform="matrix(0.9958503797398105,-0.09100561066261424,0.09100561066261424,0.9958503797398105,380.3215939055281,-0.629875943025354)" fill="#ffa6d5"></use><use xlink:href="#bbburst-shape-6" width="18.606642213979143" opacity="0.6458652668306937" transform="matrix(0.9995418879430326,-0.030265727271589653,0.030265727271589653,0.9995418879430326,418.8359347778233,154.6611759474361)" fill="#ffa6d5" filter="url(#bbburst-blur-1)"></use><use xlink:href="#bbburst-shape-6" width="10.484250693386572" opacity="0.8792011630069104" transform="matrix(0.7465646707083777,0.6653128530624458,-0.6653128530624458,0.7465646707083777,691.086762212796,143.94270791508035)" fill="#ffbd9b"></use><use xlink:href="#bbburst-shape-6" width="29.169195529261636" opacity="0.4183130321374616" transform="matrix(0.9580196570939474,0.2867025228727422,-0.2867025228727422,0.9580196570939474,736.6689363503114,125.92718166024173)" fill="#2c2891" filter="url(#bbburst-blur-2)"></use><use xlink:href="#bbburst-shape-1" width="20.27912961478186" opacity="0.4336828398699405" transform="matrix(0.8046404866833308,-0.5937623154007103,0.5937623154007103,0.8046404866833308,186.29816212406575,337.01775966586575)" fill="#ff5c58" filter="url(#bbburst-blur-2)"></use><use xlink:href="#bbburst-shape-10" width="26.240059693651375" opacity="0.47908940910942255" transform="matrix(0.9741101351337251,0.22607398043506877,-0.22607398043506877,0.9741101351337251,310.2729353481886,171.50296990410493)" fill="none" stroke="#ffbd9b" filter="url(#bbburst-blur-2)"></use><use xlink:href="#bbburst-shape-3" width="9.965609616894012" opacity="0.8755339161795035" transform="matrix(0.9847900385996601,-0.17374861114518309,0.17374861114518309,0.9847900385996601,274.20898033754247,-15.416983493599048)" fill="#ff5c58"></use><use xlink:href="#bbburst-shape-6" width="14.06552800410585" opacity="0.7439214654225622" transform="matrix(0.9967748286138173,-0.08024924324811582,0.08024924324811582,0.9967748286138173,271.798856966837,74.94295143915173)" fill="#ffa6d5" filter="url(#bbburst-blur-1)"></use><use xlink:href="#bbburst-shape-3" width="21.28738897320231" opacity="0.4300544338543587" transform="matrix(0.9690130197585151,-0.24700965069908432,0.24700965069908432,0.9690130197585151,211.5596837944516,258.9703776921176)" fill="#2c2891" filter="url(#bbburst-blur-2)"></use><use xlink:href="#bbburst-shape-9" width="17.346288504438157" opacity="0.6669042094640396" transform="matrix(0.9264088617851887,-0.3765190842518758,0.3765190842518758,0.9264088617851887,106.31871694402878,-32.555057551259665)" fill="none" stroke="#2c2891" filter="url(#bbburst-blur-1)"></use><use xlink:href="#bbburst-shape-10" width="29.2698535763538" opacity="0.17656214084472333" transform="matrix(1.2431042190922663,0.13111788770036872,-0.13111788770036872,1.2431042190922663,71.1065450273087,-25.48053336463738)" fill="none" stroke="#00a19d" filter="url(#bbburst-blur-3)"></use><use xlink:href="#bbburst-shape-9" width="12.125362647367162" opacity="0.8186030147449485" transform="matrix(0.9945436317705137,-0.1043214479611784,0.1043214479611784,0.9945436317705137,429.88623773611505,27.898241684543848)" fill="none" stroke="#00a19d"></use><use xlink:href="#bbburst-shape-10" width="13.211761473870887" opacity="0.7269020789130003" transform="matrix(0.9509499288740971,0.3093448444282684,-0.3093448444282684,0.9509499288740971,559.7910394101827,132.9485362251079)" fill="none" stroke="#ffa6d5" filter="url(#bbburst-blur-1)"></use><use xlink:href="#bbburst-shape-9" width="20.692075675998623" opacity="0.14584150997148593" transform="matrix(1.1121548991375028,-0.570623764247907,0.570623764247907,1.1121548991375028,529.9874660284363,-143.86206041139042)" fill="none" stroke="#00a19d" filter="url(#bbburst-blur-3)"></use><use xlink:href="#bbburst-shape-4" width="9.959354338407813" opacity="0.896597770242998" transform="matrix(0.9635025195053757,0.2676992620587387,-0.2676992620587387,0.9635025195053757,469.02596980110417,-19.272971368625065)" fill="#00a19d"></use><use xlink:href="#bbburst-shape-6" width="22.794514557644135" opacity="0.6202158987213799" transform="matrix(0.8017438735402159,0.5976677682799452,-0.5976677682799452,0.8017438735402159,644.6639306546278,-97.77558597779378)" fill="#2c2891" filter="url(#bbburst-blur-1)"></use><use xlink:href="#bbburst-shape-9" width="14.108483380686764" opacity="0.6984960587799134" transform="matrix(0.9416496739296963,0.3365945507403478,-0.3365945507403478,0.9416496739296963,537.5054661996445,156.22144821417157)" fill="none" stroke="#00a19d" filter="url(#bbburst-blur-1)"></use><use xlink:href="#bbburst-shape-9" width="16.138610433584695" opacity="0.781960049901128" transform="matrix(0.9999989986583803,0.0014151615585346606,-0.0014151615585346606,0.9999989986583803,353.25976240003973,-90.05079911948116)" fill="none" stroke="#00a19d"></use><use xlink:href="#bbburst-shape-8" width="19.580139538244815" opacity="0.5804413626573297" transform="matrix(0.8639949283682533,-0.5035005101823997,0.5035005101823997,0.8639949283682533,34.846842982232346,166.70735977440552)" fill="none" stroke="#00a19d" filter="url(#bbburst-blur-1)"></use><use xlink:href="#bbburst-shape-4" width="41.006388203632966" opacity="0.27116229742773756" transform="matrix(1.1282384032151354,0.5381246189411535,-0.5381246189411535,1.1282384032151354,291.31563614242793,68.47768075401513)" fill="#ff5c58" filter="url(#bbburst-blur-3)"></use><use xlink:href="#bbburst-shape-9" width="8.871371855985869" opacity="0.8695877290963474" transform="matrix(0.9992956497883525,-0.03752604847401891,0.03752604847401891,0.9992956497883525,382.370536583914,59.04586161392433)" fill="none" stroke="#ff5c58"></use><use xlink:href="#bbburst-shape-3" width="39.44442892472068" opacity="0.05267976312796763" transform="matrix(1.7286708413066347,0.2723914874151016,-0.2723914874151016,1.7286708413066347,831.9073472277905,-529.3903766799008)" fill="#2c2891" filter="url(#bbburst-blur-4)"></use><use xlink:href="#bbburst-shape-8" width="30.988515547872126" opacity="0.2930402305318188" transform="matrix(1.0899857199198757,-0.611907779302364,0.611907779302364,1.0899857199198757,-122.93480234300262,-208.00429264715726)" fill="none" stroke="#2c2891" filter="url(#bbburst-blur-3)"></use><use xlink:href="#bbburst-shape-8" width="29.163578298411757" opacity="0.4556918025205743" transform="matrix(0.9923757169668841,0.12324948833347237,-0.12324948833347237,0.9923757169668841,571.4606755094351,-202.03741018877582)" fill="none" stroke="#2c2891" filter="url(#bbburst-blur-2)"></use><use xlink:href="#bbburst-shape-3" width="28.83615334575563" opacity="0.18321876004504445" transform="matrix(1.2310182874478943,-0.21701146506314684,0.21701146506314684,1.2310182874478943,233.34692033261658,273.03623405041725)" fill="#ff5c58" filter="url(#bbburst-blur-3)"></use><use xlink:href="#bbburst-shape-3" width="7.740968621808784" opacity="0.9862380702612545" transform="matrix(0.7288971070405752,0.6846232594265843,-0.6846232594265843,0.7288971070405752,671.2543642889066,99.5831959280456)" fill="#ffa6d5"></use><use xlink:href="#bbburst-shape-9" width="10.646642086658813" opacity="0.7784405072248616" transform="matrix(0.8720452417345351,-0.48942527148499,0.48942527148499,0.8720452417345351,296.1876887353892,29.186841901451885)" fill="none" stroke="#ff5c58"></use><use xlink:href="#bbburst-shape-8" width="8.162709987002845" opacity="0.9677877237721381" transform="matrix(0.9737313107233003,-0.22770009775378552,0.22770009775378552,0.9737313107233003,312.00245693390696,24.09871473044791)" fill="none" stroke="#2c2891"></use><use xlink:href="#bbburst-shape-9" width="14.619333819493095" opacity="0.6741506212278655" transform="matrix(0.8642354153602994,0.5030876134800089,-0.5030876134800089,0.8642354153602994,450.59613056831745,76.19390739441997)" fill="none" stroke="#2c2891" filter="url(#bbburst-blur-1)"></use><use xlink:href="#bbburst-shape-1" width="9.541073921338251" opacity="0.9001465568793162" transform="matrix(0.8906346017147557,-0.45471970072606105,0.45471970072606105,0.8906346017147557,250.15686718449635,19.426315647910485)" fill="#ffa6d5"></use><use xlink:href="#bbburst-shape-6" width="22.658947174736177" opacity="0.5595045844573889" transform="matrix(0.7153334127699839,0.6987833058787594,-0.6987833058787594,0.7153334127699839,701.2894674014942,301.90783039338334)" fill="#ffa6d5" filter="url(#bbburst-blur-1)"></use><use xlink:href="#bbburst-shape-10" width="15.563589836905003" opacity="0.6949773269574879" transform="matrix(0.7811831203528529,-0.6243019561684715,0.6243019561684715,0.7811831203528529,237.6788917143116,-8.124252932697686)" fill="none" stroke="#ffa6d5" filter="url(#bbburst-blur-1)"></use><use xlink:href="#bbburst-shape-6" width="18.674394825826262" opacity="0.6647396031970341" transform="matrix(0.9733256201867844,-0.22942806517078865,0.22942806517078865,0.9733256201867844,190.77078760281725,117.7734455522201)" fill="#ffbd9b" filter="url(#bbburst-blur-1)"></use><use xlink:href="#bbburst-shape-8" width="30.54981212387999" opacity="0.30289858615555054" transform="matrix(1.228287488329932,0.23196949371015918,-0.23196949371015918,1.228287488329932,689.2666192338811,133.3441355623837)" fill="none" stroke="#2c2891" filter="url(#bbburst-blur-3)"></use><use xlink:href="#bbburst-shape-10" width="23.383253572361156" opacity="0.5566925158262008" transform="matrix(0.9449862811893693,0.32710996371845086,-0.32710996371845086,0.9449862811893693,331.05271036257517,-46.40809168219806)" fill="none" stroke="#2c2891" filter="url(#bbburst-blur-1)"></use><use xlink:href="#bbburst-shape-3" width="18.771841850219616" opacity="0.6552779012516474" transform="matrix(0.7269240803903293,-0.6867178324091154,0.6867178324091154,0.7269240803903293,264.9484629120858,166.6997090198622)" fill="#ffa6d5" filter="url(#bbburst-blur-1)"></use><use xlink:href="#bbburst-shape-9" width="17.047797034859485" opacity="0.5757596180842895" transform="matrix(0.9967529258766804,0.08052083429943392,-0.08052083429943392,0.9967529258766804,361.5561525863215,181.0011517897516)" fill="none" stroke="#2c2891" filter="url(#bbburst-blur-1)"></use><use xlink:href="#bbburst-shape-1" width="41.52353729076" opacity="-0.09285913433610604" transform="matrix(1.2502957967081063,-1.224442902194317,1.224442902194317,1.2502957967081063,-472.57716762193303,263.706267536153)" fill="#ffa6d5" filter="url(#bbburst-blur-4)"></use><use xlink:href="#bbburst-shape-10" width="28.945669820005826" opacity="0.5001849524805225" transform="matrix(0.9801058148913759,0.19847567008606376,-0.19847567008606376,0.9801058148913759,688.9618395429085,-17.73116068246162)" fill="none" stroke="#2c2891" filter="url(#bbburst-blur-2)"></use><use xlink:href="#bbburst-shape-8" width="10.657047855392495" opacity="0.8423865521148268" transform="matrix(0.9178010531781928,-0.3970405858158583,0.3970405858158583,0.9178010531781928,196.16568247101034,-23.487968312271448)" fill="none" stroke="#2c2891"></use><use xlink:href="#bbburst-shape-9" width="14.231034467130417" opacity="0.6305686284411927" transform="matrix(0.7262810912775428,-0.6873978298283328,0.6873978298283328,0.7262810912775428,107.00477652528042,280.059504350701)" fill="none" stroke="#00a19d" filter="url(#bbburst-blur-1)"></use><use xlink:href="#bbburst-shape-8" width="26.051706076330923" opacity="0.3008054631674494" transform="matrix(1.24492611640498,0.11251206465448109,-0.11251206465448109,1.24492611640498,511.1850964223349,204.22103268595703)" fill="none" stroke="#00a19d" filter="url(#bbburst-blur-3)"></use><use xlink:href="#bbburst-shape-6" width="26.247041352231992" opacity="0.4845846882483619" transform="matrix(0.9974549815038185,-0.07129908746412637,0.07129908746412637,0.9974549815038185,427.02369250363387,-219.59549960637386)" fill="#00a19d" filter="url(#bbburst-blur-2)"></use><use xlink:href="#bbburst-shape-6" width="41.962822244338064" opacity="0.12466413034553381" transform="matrix(0.9550276574095983,-0.8064875532720484,0.8064875532720484,0.9550276574095983,-238.42993160251774,295.0297595840504)" fill="#ffa6d5" filter="url(#bbburst-blur-3)"></use><use xlink:href="#bbburst-shape-10" width="27.93072735379642" opacity="0.29208181596034655" transform="matrix(1.2499264742713798,-0.01355761466917919,0.01355761466917919,1.2499264742713798,263.9496083820073,198.00167318448985)" fill="none" stroke="#00a19d" filter="url(#bbburst-blur-3)"></use><use xlink:href="#bbburst-shape-1" width="17.937140105173214" opacity="0.7342563806886983" transform="matrix(0.9891878666680856,-0.14665389335657553,0.14665389335657553,0.9891878666680856,349.9306206954309,-112.64010250356478)" fill="#2c2891" filter="url(#bbburst-blur-1)"></use><use xlink:href="#bbburst-shape-6" width="38.04052316542803" opacity="0.33254699021551715" transform="matrix(1.1983545674488847,0.35559292832450506,-0.35559292832450506,1.1983545674488847,362.78619980618,-342.36786266800567)" fill="#ffbd9b" filter="url(#bbburst-blur-3)"></use><use xlink:href="#bbburst-shape-6" width="8.836785535664394" opacity="0.8976847211574384" transform="matrix(0.7476463932048664,0.6640970341205826,-0.6640970341205826,0.7476463932048664,646.792303086265,141.3462703612227)" fill="#2c2891"></use><use xlink:href="#bbburst-shape-10" width="25.40641900522362" opacity="0.6057723785276306" transform="matrix(0.9974597689547052,0.07123208067174602,-0.07123208067174602,0.9974597689547052,373.13312369052295,-172.07847606799444)" fill="none" stroke="#ffa6d5" filter="url(#bbburst-blur-1)"></use><use xlink:href="#bbburst-shape-4" width="13.288312633852701" opacity="0.7887475866738112" transform="matrix(0.9728176497714195,-0.23157249468192864,0.23157249468192864,0.9728176497714195,244.12315319500843,88.66180387389647)" fill="#ffa6d5"></use><use xlink:href="#bbburst-shape-1" width="15.977985597526388" opacity="0.737848719786137" transform="matrix(0.7349068074031294,0.6781681092712482,-0.6781681092712482,0.7349068074031294,782.4839213003316,114.90447322283183)" fill="#ffa6d5" filter="url(#bbburst-blur-1)"></use><use xlink:href="#bbburst-shape-10" width="20.08841695801755" opacity="0.43392634968238775" transform="matrix(0.9305841011291915,0.36607817570236917,-0.36607817570236917,0.9305841011291915,734.1089212514541,185.55230680967708)" fill="none" stroke="#ffbd9b" filter="url(#bbburst-blur-2)"></use><use xlink:href="#bbburst-shape-9" width="17.974999100358243" opacity="0.6992817226772756" transform="matrix(0.9679080130806533,0.2513047516746587,-0.2513047516746587,0.9679080130806533,624.2738728160084,-17.416721922814645)" fill="none" stroke="#ffbd9b" filter="url(#bbburst-blur-1)"></use><use xlink:href="#bbburst-shape-4" width="34.87600647215757" opacity="-0.09358170864512538" transform="matrix(1.7210167041283777,-0.31717740163999,0.31717740163999,1.7210167041283777,589.2291855665238,-632.6610699124033)" fill="#ff5c58" filter="url(#bbburst-blur-4)"></use><use xlink:href="#bbburst-shape-6" width="19.271684995758363" opacity="0.4633212792815049" transform="matrix(0.8955778054565791,-0.4449049273424355,0.4449049273424355,0.8955778054565791,296.7741400325084,272.7167229739377)" fill="#2c2891" filter="url(#bbburst-blur-2)"></use><use xlink:href="#bbburst-shape-8" width="8.981687819768332" opacity="0.9644852881760685" transform="matrix(0.9727228504544382,0.2319703778584513,-0.2319703778584513,0.9727228504544382,473.27181908014563,14.963305213706747)" fill="none" stroke="#ffa6d5"></use><use xlink:href="#bbburst-shape-10" width="19.714494407652282" opacity="0.5237761524094142" transform="matrix(0.999961702363008,0.008751788804299951,-0.008751788804299951,0.999961702363008,371.669164915849,213.10014849097644)" fill="none" stroke="#2c2891" filter="url(#bbburst-blur-2)"></use><use xlink:href="#bbburst-shape-6" width="9.119478213329637" opacity="0.7976550697606538" transform="matrix(0.7439684178094808,0.6682147808168103,-0.6682147808168103,0.7439684178094808,714.5114942747998,23.676492013138557)" fill="#ff5c58"></use><use xlink:href="#bbburst-shape-8" width="16.213906037568183" opacity="0.7622189409320425" transform="matrix(0.9991869337113011,0.0403171365626085,-0.0403171365626085,0.9991869337113011,308.5812794463576,39.49476824308596)" fill="none" stroke="#2c2891" filter="url(#bbburst-blur-1)"></use><use xlink:href="#bbburst-shape-9" width="24.315681348256437" opacity="0.11898238419226626" transform="matrix(0.9880682889633513,0.7656507404456913,-0.7656507404456913,0.9880682889633513,538.6263059312333,359.88655890254387)" fill="none" stroke="#00a19d" filter="url(#bbburst-blur-3)"></use><use xlink:href="#bbburst-shape-1" width="24.863479457533664" opacity="0.4891265549222843" transform="matrix(0.9075313082288239,0.4199844337406797,-0.4199844337406797,0.9075313082288239,696.1792761652571,214.5406473585025)" fill="#2c2891" filter="url(#bbburst-blur-2)"></use><use xlink:href="#bbburst-shape-9" width="24.727728330773832" opacity="0.3705112983545912" transform="matrix(0.8914486912721643,-0.4531216512473725,0.4531216512473725,0.8914486912721643,346.96765677044124,295.5188825346579)" fill="none" stroke="#2c2891" filter="url(#bbburst-blur-2)"></use><use xlink:href="#bbburst-shape-4" width="29.319534216602385" opacity="0.44386282765417473" transform="matrix(0.9976986709247838,-0.06780384970575078,0.06780384970575078,0.9976986709247838,137.49657833771647,119.82661720848432)" fill="#00a19d" filter="url(#bbburst-blur-2)"></use><use xlink:href="#bbburst-shape-9" width="27.237733479989956" opacity="0.4082513493419171" transform="matrix(0.9801131250677524,0.19843956780320887,-0.19843956780320887,0.9801131250677524,715.9958655348447,-86.8129536019706)" fill="none" stroke="#00a19d" filter="url(#bbburst-blur-2)"></use><use xlink:href="#bbburst-shape-6" width="7.825176075324264" opacity="0.9438038371262482" transform="matrix(0.9822948239577093,-0.18734160996930962,0.18734160996930962,0.9822948239577093,312.71372814202584,31.629820874893596)" fill="#00a19d"></use><use xlink:href="#bbburst-shape-6" width="41.17857589282937" opacity="0.08010409794565665" transform="matrix(1.465094482436735,0.9570779265730855,-0.9570779265730855,1.465094482436735,390.50435518469317,-5.251919177490322)" fill="#2c2891" filter="url(#bbburst-blur-4)"></use><use xlink:href="#bbburst-shape-4" width="12.183481621086461" opacity="0.7614752328517334" transform="matrix(0.9337130703045378,-0.35802220928662143,0.35802220928662143,0.9337130703045378,345.66758790675436,79.4935358662076)" fill="#ffa6d5" filter="url(#bbburst-blur-1)"></use><use xlink:href="#bbburst-shape-6" width="24.721202066753115" opacity="0.13458667506359812" transform="matrix(1.2269314559130304,0.23903807749212577,-0.23903807749212577,1.2269314559130304,610.9918717747487,273.1778546630269)" fill="#00a19d" filter="url(#bbburst-blur-3)"></use><use xlink:href="#bbburst-shape-8" width="6.877828322023966" opacity="0.9422324819407512" transform="matrix(0.9433793359757096,-0.331715885139722,0.331715885139722,0.9433793359757096,262.33437333025694,-2.1484061340784137)" fill="none" stroke="#ffa6d5"></use><use xlink:href="#bbburst-shape-4" width="13.112362902144014" opacity="0.6743832719323865" transform="matrix(0.8825794323696434,0.47016331796310745,-0.47016331796310745,0.8825794323696434,534.0413595253192,182.2580520513324)" fill="#ffa6d5" filter="url(#bbburst-blur-1)"></use><use xlink:href="#bbburst-shape-4" width="27.44930544726857" opacity="0.4878522790223473" transform="matrix(0.8587043520474097,0.5124713023914981,-0.5124713023914981,0.8587043520474097,399.29309672058287,-75.06781237679701)" fill="#ff5c58" filter="url(#bbburst-blur-2)"></use><use xlink:href="#bbburst-shape-9" width="14.498531918670926" opacity="0.7451586734879787" transform="matrix(0.93645624058055,-0.350784420232346,0.350784420232346,0.93645624058055,176.80562057443422,-57.95884700059611)" fill="none" stroke="#00a19d" filter="url(#bbburst-blur-1)"></use><use xlink:href="#bbburst-shape-3" width="10.401515420447623" opacity="0.8753535042528026" transform="matrix(0.943207834069611,-0.3322032235691178,0.3322032235691178,0.943207834069611,206.09246323626894,25.375576184017007)" fill="#00a19d"></use><use xlink:href="#bbburst-shape-6" width="31.105205836219795" opacity="0.21400626884112428" transform="matrix(1.1715148289344242,0.4359506916920157,-0.4359506916920157,1.1715148289344242,735.4716533287626,229.48975112360188)" fill="#00a19d" filter="url(#bbburst-blur-3)"></use><use xlink:href="#bbburst-shape-9" width="23.55268246782404" opacity="0.3943533994300862" transform="matrix(0.7968970391522476,-0.604115145473428,0.604115145473428,0.7968970391522476,116.69058376162934,358.8630757888049)" fill="none" stroke="#00a19d" filter="url(#bbburst-blur-2)"></use><use xlink:href="#bbburst-shape-6" width="10.88619717892857" opacity="0.8595496802679614" transform="matrix(0.9999405010889476,-0.010908450026673358,0.010908450026673358,0.9999405010889476,430.1053109148767,-48.92332546950212)" fill="#2c2891"></use><use xlink:href="#bbburst-shape-10" width="30.08214598591239" opacity="0.30363237998950754" transform="matrix(1.000273453752921,-0.7496352564528986,0.7496352564528986,1.000273453752921,198.48555200543007,-280.9672273954775)" fill="none" stroke="#ffa6d5" filter="url(#bbburst-blur-3)"></use><use xlink:href="#bbburst-shape-6" width="11.666928374088268" opacity="0.8377179323739294" transform="matrix(0.9430359552707206,-0.3326908280470615,0.3326908280470615,0.9430359552707206,233.20909798769574,92.08324224454515)" fill="#2c2891"></use><use xlink:href="#bbburst-shape-1" width="17.901309503262695" opacity="0.6771561942128853" transform="matrix(0.8308232966300496,0.5565362969086353,-0.5565362969086353,0.8308232966300496,543.5132050503964,-63.67258806959745)" fill="#2c2891" filter="url(#bbburst-blur-1)"></use><use xlink:href="#bbburst-shape-8" width="25.23273180589065" opacity="0.4082550151808457" transform="matrix(0.9441114328890201,0.3296264587199293,-0.3296264587199293,0.9441114328890201,729.0428611844948,-146.6776011848781)" fill="none" stroke="#00a19d" filter="url(#bbburst-blur-2)"></use><use xlink:href="#bbburst-shape-3" width="25.95462456008096" opacity="0.6204651858225967" transform="matrix(0.8834317036557915,0.4685599481131799,-0.4685599481131799,0.8834317036557915,447.99223947647033,-72.70858642303705)" fill="#2c2891" filter="url(#bbburst-blur-1)"></use><use xlink:href="#bbburst-shape-3" width="30.7356914111343" opacity="0.014415081533953988" transform="matrix(1.6035401513663947,0.7008273560270316,-0.7008273560270316,1.6035401513663947,395.1405229830402,106.78162804039198)" fill="#00a19d" filter="url(#bbburst-blur-4)"></use><use xlink:href="#bbburst-shape-4" width="12.878406906821917" opacity="0.736630549810823" transform="matrix(0.7305323229503691,-0.6828781187918805,0.6828781187918805,0.7305323229503691,107.72862811553091,229.82804839646826)" fill="#ffbd9b" filter="url(#bbburst-blur-1)"></use><use xlink:href="#bbburst-shape-3" width="12.059903802523655" opacity="0.8213066500240235" transform="matrix(0.7163179696004447,0.697774008134078,-0.697774008134078,0.7163179696004447,609.0540398710433,62.873938762867226)" fill="#00a19d"></use><use xlink:href="#bbburst-shape-1" width="11.421977777757577" opacity="0.8316282153595723" transform="matrix(0.7901510130741027,0.6129122094867822,-0.6129122094867822,0.7901510130741027,667.177415345447,151.42007310826676)" fill="#ffa6d5"></use><use xlink:href="#bbburst-shape-8" width="8.756533020542374" opacity="0.9446505702377541" transform="matrix(0.8618624270785069,-0.5071421465332431,0.5071421465332431,0.8618624270785069,174.15312650625924,41.62945847719351)" fill="none" stroke="#2c2891"></use><use xlink:href="#bbburst-shape-10" width="18.072853843971323" opacity="0.5712593560634254" transform="matrix(0.7387626881044014,0.6739656450181708,-0.6739656450181708,0.7387626881044014,746.5761803542442,272.2531724117569)" fill="none" stroke="#ffa6d5" filter="url(#bbburst-blur-1)"></use><use xlink:href="#bbburst-shape-9" width="10.590888202328566" opacity="0.8167777952400783" transform="matrix(0.8741609093462507,0.4856363913165241,-0.4856363913165241,0.8741609093462507,672.0940002603355,46.07022904928971)" fill="none" stroke="#ffbd9b"></use><use xlink:href="#bbburst-shape-9" width="29.4304958446858" opacity="0.18348965746678925" transform="matrix(1.1053802625630635,0.5836389938446646,-0.5836389938446646,1.1053802625630635,252.6253325790667,-95.82584903574178)" fill="none" stroke="#2c2891" filter="url(#bbburst-blur-3)"></use><use xlink:href="#bbburst-shape-8" width="30.634446898087866" opacity="0.19057799801760433" transform="matrix(1.249500301102837,0.035341159346008025,-0.035341159346008025,1.249500301102837,759.0233816944711,-87.85346564519477)" fill="none" stroke="#ffa6d5" filter="url(#bbburst-blur-3)"></use><use xlink:href="#bbburst-shape-8" width="30.58978600180099" opacity="0.16775251143351666" transform="matrix(1.0151806611040035,-0.7293203859213304,0.7293203859213304,1.0151806611040035,-256.60278268894115,-129.8805678799584)" fill="none" stroke="#ffa6d5" filter="url(#bbburst-blur-3)"></use><use xlink:href="#bbburst-shape-6" width="7.858934040166769" opacity="0.9224373787388163" transform="matrix(0.9868387896410237,0.16170715277884135,-0.16170715277884135,0.9868387896410237,425.99771633206024,2.044938988109493)" fill="#ff5c58"></use><use xlink:href="#bbburst-shape-9" width="26.92373664941187" opacity="0.49385390675708596" transform="matrix(0.9800910666775957,-0.19854848530969132,0.19854848530969132,0.9800910666775957,530.7724111390824,54.73027120590331)" fill="none" stroke="#2c2891" filter="url(#bbburst-blur-2)"></use><use xlink:href="#bbburst-shape-9" width="24.30108946093616" opacity="0.5990970805505149" transform="matrix(0.9460120678188654,0.3241314047436231,-0.3241314047436231,0.9460120678188654,611.7519390590678,-136.75945890523298)" fill="none" stroke="#ffa6d5" filter="url(#bbburst-blur-1)"></use><use xlink:href="#bbburst-shape-9" width="8.37246116631864" opacity="0.8067998295748268" transform="matrix(0.9723100520858656,0.2336945926049238,-0.2336945926049238,0.9723100520858656,403.1352054548262,20.691207857606855)" fill="none" stroke="#ffa6d5"></use><use xlink:href="#bbburst-shape-8" width="25.794399867368675" opacity="0.48842584000511335" transform="matrix(0.9936662451216737,-0.11237167483754082,0.11237167483754082,0.9936662451216737,229.5860553130666,204.74613893467978)" fill="none" stroke="#00a19d" filter="url(#bbburst-blur-2)"></use><use xlink:href="#bbburst-shape-4" width="48.02337277643153" opacity="-0.08733870103101204" transform="matrix(1.54884340330016,0.8146067223228508,-0.8146067223228508,1.54884340330016,340.45065925182485,-582.8282789238015)" fill="#00a19d" filter="url(#bbburst-blur-4)"></use><use xlink:href="#bbburst-shape-9" width="40.76086237650003" opacity="0.2890525843882634" transform="matrix(0.9270363154646839,-0.8385127725978079,0.8385127725978079,0.9270363154646839,240.6401472075275,-207.4792967528359)" fill="none" stroke="#ffbd9b" filter="url(#bbburst-blur-3)"></use><use xlink:href="#bbburst-shape-4" width="23.995131579523918" opacity="0.5466699518911582" transform="matrix(0.9074977100269185,0.4200570274330605,-0.4200570274330605,0.9074977100269185,446.38925778927637,-139.3455640698025)" fill="#ff5c58" filter="url(#bbburst-blur-2)"></use><use xlink:href="#bbburst-shape-4" width="42.05974068561416" opacity="0.24643217524372707" transform="matrix(1.2323914912769582,0.2090722655642182,-0.2090722655642182,1.2323914912769582,746.1293837740018,81.0283654773794)" fill="#ffbd9b" filter="url(#bbburst-blur-3)"></use><use xlink:href="#bbburst-shape-9" width="8.858488667944624" opacity="0.9255547214135327" transform="matrix(0.9842298942721351,0.17689407910120045,-0.17689407910120045,0.9842298942721351,494.36666893913554,23.921997110310485)" fill="none" stroke="#ffa6d5"></use><use xlink:href="#bbburst-shape-3" width="10.325764072109932" opacity="0.9199249708433457" transform="matrix(0.9189376668124749,0.39440279475841045,-0.39440279475841045,0.9189376668124749,562.1069226561186,65.2319971187186)" fill="#00a19d"></use><use xlink:href="#bbburst-shape-1" width="11.123009265939842" opacity="0.8265958157670823" transform="matrix(0.924974589142147,0.3800289586877772,-0.3800289586877772,0.924974589142147,605.5004048948929,79.39288954866896)" fill="#2c2891"></use><use xlink:href="#bbburst-shape-10" width="19.028948588842756" opacity="0.7121544544329996" transform="matrix(0.9703339504233707,0.24176853528897366,-0.24176853528897366,0.9703339504233707,465.15130145556714,-118.026162920405)" fill="none" stroke="#2c2891" filter="url(#bbburst-blur-1)"></use><use xlink:href="#bbburst-shape-10" width="34.79136428050797" opacity="0.08541874137416816" transform="matrix(1.6462032260027493,0.5937296848719464,-0.5937296848719464,1.6462032260027493,871.7760323000077,-585.4410630086343)" fill="none" stroke="#ffa6d5" filter="url(#bbburst-blur-4)"></use><use xlink:href="#bbburst-shape-6" width="28.125194206626492" opacity="0.34976600728900087" transform="matrix(0.9905859207608311,-0.13689241611724345,0.13689241611724345,0.9905859207608311,623.5761990157195,-8.45119824404452)" fill="#ffa6d5" filter="url(#bbburst-blur-2)"></use><use xlink:href="#bbburst-shape-9" width="11.678434317519127" opacity="0.7466669073827253" transform="matrix(0.9291801454194579,0.36962718698477126,-0.36962718698477126,0.9291801454194579,446.6785440976802,-35.733770775993264)" fill="none" stroke="#ffa6d5" filter="url(#bbburst-blur-1)"></use><use xlink:href="#bbburst-shape-6" width="12.919348010375973" opacity="0.7241669347160233" transform="matrix(0.729000277878513,-0.6845134000536811,0.6845134000536811,0.729000277878513,197.99772954416073,210.5605772495926)" fill="#2c2891" filter="url(#bbburst-blur-1)"></use></svg>